HIERARCHY
ROOT mixamorig:Hips
{
	OFFSET -0.000008 104.274872 1.554316
	CHANNELS 6 Xposition Yposition Zposition Xrotation Yrotation Zrotation
	JOINT mixamorig:Spine
	{
		OFFSET -0.000005 10.181595 0.131519
		CHANNELS 6 Xposition Yposition Zposition Xrotation Yrotation Zrotation
		JOINT mixamorig:Spine1
		{
			OFFSET -0.000000 9.893959 -1.470707
			CHANNELS 6 Xposition Yposition Zposition Xrotation Yrotation Zrotation
			JOINT mixamorig:Spine2
			{
				OFFSET -0.000000 9.220757 -1.370641
				CHANNELS 6 Xposition Yposition Zposition Xrotation Yrotation Zrotation
				JOINT mixamorig:Neck
				{
					OFFSET 0.000001 16.740417 -2.049036
					CHANNELS 6 Xposition Yposition Zposition Xrotation Yrotation Zrotation
					JOINT mixamorig:Head
					{
						OFFSET 0.000000 9.617874 1.685006
						CHANNELS 6 Xposition Yposition Zposition Xrotation Yrotation Zrotation
						JOINT mixamorig:HeadTop_End
						{
							OFFSET 0.000002 22.037354 7.501101
							CHANNELS 6 Xposition Yposition Zposition Xrotation Yrotation Zrotation
							End Site
							{
								OFFSET 0.000168 2310.654297 -282.823242
							}
						}
					}
				}
				JOINT mixamorig:RightShoulder
				{
					OFFSET -4.569970 11.014908 -2.160885
					CHANNELS 6 Xposition Yposition Zposition Xrotation Yrotation Zrotation
					JOINT mixamorig:RightArm
					{
						OFFSET -10.592851 -0.524811 -2.232101
						CHANNELS 6 Xposition Yposition Zposition Xrotation Yrotation Zrotation
						JOINT mixamorig:RightForeArm
						{
							OFFSET -27.841511 0.000031 -0.000004
							CHANNELS 6 Xposition Yposition Zposition Xrotation Yrotation Zrotation
							JOINT mixamorig:RightHand
							{
								OFFSET -28.328831 -0.000015 0.000015
								CHANNELS 6 Xposition Yposition Zposition Xrotation Yrotation Zrotation
								JOINT mixamorig:RightHandThumb1
								{
									OFFSET -2.464806 -1.573990 2.681852
									CHANNELS 6 Xposition Yposition Zposition Xrotation Yrotation Zrotation
									JOINT mixamorig:RightHandThumb2
									{
										OFFSET -3.215179 -1.872803 1.924282
										CHANNELS 6 Xposition Yposition Zposition Xrotation Yrotation Zrotation
										JOINT mixamorig:RightHandThumb3
										{
											OFFSET -2.654831 -1.527969 1.512609
											CHANNELS 6 Xposition Yposition Zposition Xrotation Yrotation Zrotation
											JOINT mixamorig:RightHandThumb4
											{
												OFFSET -2.018814 -1.152008 1.108052
												CHANNELS 6 Xposition Yposition Zposition Xrotation Yrotation Zrotation
												End Site
												{
													OFFSET -188.809540 -114.533607 132.431396
												}
											}
										}
									}
								}
								JOINT mixamorig:RightHandIndex1
								{
									OFFSET -9.108284 -0.517868 2.259835
									CHANNELS 6 Xposition Yposition Zposition Xrotation Yrotation Zrotation
									JOINT mixamorig:RightHandIndex2
									{
										OFFSET -3.699989 0.000000 0.001215
										CHANNELS 6 Xposition Yposition Zposition Xrotation Yrotation Zrotation
										JOINT mixamorig:RightHandIndex3
										{
											OFFSET -2.850006 0.000031 -0.000522
											CHANNELS 6 Xposition Yposition Zposition Xrotation Yrotation Zrotation
											JOINT mixamorig:RightHandIndex4
											{
												OFFSET -2.772186 -0.000015 -0.000020
												CHANNELS 6 Xposition Yposition Zposition Xrotation Yrotation Zrotation
												End Site
												{
													OFFSET -277.218445 0.000000 -0.050231
												}
											}
										}
									}
								}
								JOINT mixamorig:RightHandMiddle1
								{
									OFFSET -9.532516 -0.000031 -0.000023
									CHANNELS 6 Xposition Yposition Zposition Xrotation Yrotation Zrotation
									JOINT mixamorig:RightHandMiddle2
									{
										OFFSET -3.700005 -0.000015 0.003713
										CHANNELS 6 Xposition Yposition Zposition Xrotation Yrotation Zrotation
										JOINT mixamorig:RightHandMiddle3
										{
											OFFSET -2.949974 0.000015 -0.002054
											CHANNELS 6 Xposition Yposition Zposition Xrotation Yrotation Zrotation
											JOINT mixamorig:RightHandMiddle4
											{
												OFFSET -2.946640 0.000000 -0.000156
												CHANNELS 6 Xposition Yposition Zposition Xrotation Yrotation Zrotation
												End Site
												{
													OFFSET -294.664337 0.000000 -0.113670
												}
											}
										}
									}
								}
								JOINT mixamorig:RightHandRing1
								{
									OFFSET -9.103600 -0.043076 -1.865134
									CHANNELS 6 Xposition Yposition Zposition Xrotation Yrotation Zrotation
									JOINT mixamorig:RightHandRing2
									{
										OFFSET -3.379288 0.000000 -0.001055
										CHANNELS 6 Xposition Yposition Zposition Xrotation Yrotation Zrotation
										JOINT mixamorig:RightHandRing3
										{
											OFFSET -2.889687 -0.000015 0.000379
											CHANNELS 6 Xposition Yposition Zposition Xrotation Yrotation Zrotation
											JOINT mixamorig:RightHandRing4
											{
												OFFSET -2.638809 -0.000015 0.000941
												CHANNELS 6 Xposition Yposition Zposition Xrotation Yrotation Zrotation
												End Site
												{
													OFFSET -263.880371 0.000000 0.516020
												}
											}
										}
									}
								}
								JOINT mixamorig:RightHandPinky1
								{
									OFFSET -8.076683 -0.486710 -3.806280
									CHANNELS 6 Xposition Yposition Zposition Xrotation Yrotation Zrotation
									JOINT mixamorig:RightHandPinky2
									{
										OFFSET -3.600014 -0.000015 -0.003747
										CHANNELS 6 Xposition Yposition Zposition Xrotation Yrotation Zrotation
										JOINT mixamorig:RightHandPinky3
										{
											OFFSET -2.099983 0.000000 -0.005739
											CHANNELS 6 Xposition Yposition Zposition Xrotation Yrotation Zrotation
											JOINT mixamorig:RightHandPinky4
											{
												OFFSET -2.115768 -0.000031 -0.003680
												CHANNELS 6 Xposition Yposition Zposition Xrotation Yrotation Zrotation
												End Site
												{
													OFFSET -211.577087 0.000000 -0.350686
												}
											}
										}
									}
								}
							}
						}
					}
				}
				JOINT mixamorig:LeftShoulder
				{
					OFFSET 4.570447 11.014725 -2.160855
					CHANNELS 6 Xposition Yposition Zposition Xrotation Yrotation Zrotation
					JOINT mixamorig:LeftArm
					{
						OFFSET 10.592371 -0.524597 -2.232119
						CHANNELS 6 Xposition Yposition Zposition Xrotation Yrotation Zrotation
						JOINT mixamorig:LeftForeArm
						{
							OFFSET 27.841532 -0.000031 0.000026
							CHANNELS 6 Xposition Yposition Zposition Xrotation Yrotation Zrotation
							JOINT mixamorig:LeftHand
							{
								OFFSET 28.328846 -0.000061 0.000022
								CHANNELS 6 Xposition Yposition Zposition Xrotation Yrotation Zrotation
								JOINT mixamorig:LeftHandThumb1
								{
									OFFSET 2.466141 -1.576172 2.681732
									CHANNELS 6 Xposition Yposition Zposition Xrotation Yrotation Zrotation
									JOINT mixamorig:LeftHandThumb2
									{
										OFFSET 3.217812 -1.872070 1.916482
										CHANNELS 6 Xposition Yposition Zposition Xrotation Yrotation Zrotation
										JOINT mixamorig:LeftHandThumb3
										{
											OFFSET 2.656029 -1.528778 1.514513
											CHANNELS 6 Xposition Yposition Zposition Xrotation Yrotation Zrotation
											JOINT mixamorig:LeftHandThumb4
											{
												OFFSET 2.020889 -1.154053 1.115139
												CHANNELS 6 Xposition Yposition Zposition Xrotation Yrotation Zrotation
												End Site
												{
													OFFSET 190.885437 -115.081749 130.048782
												}
											}
										}
									}
								}
								JOINT mixamorig:LeftHandIndex1
								{
									OFFSET 9.109314 -0.518021 2.259871
									CHANNELS 6 Xposition Yposition Zposition Xrotation Yrotation Zrotation
									JOINT mixamorig:LeftHandIndex2
									{
										OFFSET 3.699989 0.000000 -0.000322
										CHANNELS 6 Xposition Yposition Zposition Xrotation Yrotation Zrotation
										JOINT mixamorig:LeftHandIndex3
										{
											OFFSET 2.850006 0.000000 0.000352
											CHANNELS 6 Xposition Yposition Zposition Xrotation Yrotation Zrotation
											JOINT mixamorig:LeftHandIndex4
											{
												OFFSET 2.774864 -0.000031 -0.000027
												CHANNELS 6 Xposition Yposition Zposition Xrotation Yrotation Zrotation
												End Site
												{
													OFFSET 277.486267 0.000000 -0.009857
												}
											}
										}
									}
								}
								JOINT mixamorig:LeftHandMiddle1
								{
									OFFSET 9.533394 0.000061 0.000044
									CHANNELS 6 Xposition Yposition Zposition Xrotation Yrotation Zrotation
									JOINT mixamorig:LeftHandMiddle2
									{
										OFFSET 3.699989 -0.000015 -0.000231
										CHANNELS 6 Xposition Yposition Zposition Xrotation Yrotation Zrotation
										JOINT mixamorig:LeftHandMiddle3
										{
											OFFSET 2.949997 -0.000015 -0.000059
											CHANNELS 6 Xposition Yposition Zposition Xrotation Yrotation Zrotation
											JOINT mixamorig:LeftHandMiddle4
											{
												OFFSET 2.952896 0.000031 0.000063
												CHANNELS 6 Xposition Yposition Zposition Xrotation Yrotation Zrotation
												End Site
												{
													OFFSET 295.289337 0.000000 0.022810
												}
											}
										}
									}
								}
								JOINT mixamorig:LeftHandRing1
								{
									OFFSET 9.104523 -0.042999 -1.865074
									CHANNELS 6 Xposition Yposition Zposition Xrotation Yrotation Zrotation
									JOINT mixamorig:LeftHandRing2
									{
										OFFSET 3.150009 -0.000031 0.000043
										CHANNELS 6 Xposition Yposition Zposition Xrotation Yrotation Zrotation
										JOINT mixamorig:LeftHandRing3
										{
											OFFSET 2.949982 -0.000015 0.000040
											CHANNELS 6 Xposition Yposition Zposition Xrotation Yrotation Zrotation
											JOINT mixamorig:LeftHandRing4
											{
												OFFSET 2.644348 0.000000 0.000057
												CHANNELS 6 Xposition Yposition Zposition Xrotation Yrotation Zrotation
												End Site
												{
													OFFSET 264.434631 0.000000 0.012105
												}
											}
										}
									}
								}
								JOINT mixamorig:LeftHandPinky1
								{
									OFFSET 8.077789 -0.486847 -3.806259
									CHANNELS 6 Xposition Yposition Zposition Xrotation Yrotation Zrotation
									JOINT mixamorig:LeftHandPinky2
									{
										OFFSET 3.599953 0.000031 0.014727
										CHANNELS 6 Xposition Yposition Zposition Xrotation Yrotation Zrotation
										JOINT mixamorig:LeftHandPinky3
										{
											OFFSET 2.100021 0.000015 0.007705
											CHANNELS 6 Xposition Yposition Zposition Xrotation Yrotation Zrotation
											JOINT mixamorig:LeftHandPinky4
											{
												OFFSET 2.125504 0.000031 0.007517
												CHANNELS 6 Xposition Yposition Zposition Xrotation Yrotation Zrotation
												End Site
												{
													OFFSET 212.550781 0.000000 0.625752
												}
											}
										}
									}
								}
							}
						}
					}
				}
			}
		}
	}
	JOINT mixamorig:RightUpLeg
	{
		OFFSET -8.207787 -6.751648 -1.599560
		CHANNELS 6 Xposition Yposition Zposition Xrotation Yrotation Zrotation
		JOINT mixamorig:RightLeg
		{
			OFFSET -0.000002 -44.370117 0.345942
			CHANNELS 6 Xposition Yposition Zposition Xrotation Yrotation Zrotation
			JOINT mixamorig:RightFoot
			{
				OFFSET 0.000003 -44.423679 -3.043532
				CHANNELS 6 Xposition Yposition Zposition Xrotation Yrotation Zrotation
				JOINT mixamorig:RightToeBase
				{
					OFFSET -0.000002 -8.728671 10.710558
					CHANNELS 6 Xposition Yposition Zposition Xrotation Yrotation Zrotation
					JOINT mixamorig:RightToe_End
					{
						OFFSET -0.000001 -0.000679 9.278119
						CHANNELS 6 Xposition Yposition Zposition Xrotation Yrotation Zrotation
						End Site
						{
							OFFSET 0.000000 -0.067690 927.812134
						}
					}
				}
			}
		}
	}
	JOINT mixamorig:LeftUpLeg
	{
		OFFSET 8.207793 -6.751686 -1.599556
		CHANNELS 6 Xposition Yposition Zposition Xrotation Yrotation Zrotation
		JOINT mixamorig:LeftLeg
		{
			OFFSET -0.000004 -44.370014 0.346954
			CHANNELS 6 Xposition Yposition Zposition Xrotation Yrotation Zrotation
			JOINT mixamorig:LeftFoot
			{
				OFFSET -0.000001 -44.423672 -3.044401
				CHANNELS 6 Xposition Yposition Zposition Xrotation Yrotation Zrotation
				JOINT mixamorig:LeftToeBase
				{
					OFFSET -0.000002 -8.728669 10.710558
					CHANNELS 6 Xposition Yposition Zposition Xrotation Yrotation Zrotation
					JOINT mixamorig:LeftToe_End
					{
						OFFSET -0.000003 -0.000679 9.278133
						CHANNELS 6 Xposition Yposition Zposition Xrotation Yrotation Zrotation
						End Site
						{
							OFFSET 0.000000 -0.068021 927.813477
						}
					}
				}
			}
		}
	}
}
MOTION
Frames: 3
Frame Time: 0.033333
0.000006 104.270477 1.554256 0.000010 0.000003 -0.000113 -0.000005 10.181587 0.131522 0.000001 -0.000003 0.000084 -0.000000 9.893967 -1.470711 0.000001 0.000000 -0.000000 -0.000000 9.220802 -1.370642 0.000000 -0.000000 -0.000000 0.000001 16.740433 -2.049030 0.000000 -0.000000 -0.000000 0.000000 9.617859 1.685014 0.000000 0.000000 0.000000 0.000002 22.037384 7.501101 0.000000 -0.000000 0.000000 -4.569968 11.014880 -2.160881 0.000008 0.000001 -0.000038 -10.592875 -0.524773 -2.231897 70.442937 33.618154 -24.078346 -27.841526 0.000017 0.000553 -55.077303 107.390771 70.727654 -28.328814 0.000021 0.000032 -0.000323 -0.000044 0.000007 -2.464407 -1.573878 2.682359 -36.326522 -154.935547 14.717360 -3.215250 -1.872494 1.924612 150.188866 34.004981 26.149005 -2.654972 -1.527875 1.513077 147.980857 27.108635 -33.432847 -2.018822 -1.152012 1.108055 -0.000005 0.000006 0.000003 -9.108395 -0.517570 2.260150 101.880632 17.846770 -21.958923 -3.700072 0.000303 0.001528 99.157360 15.551646 -18.189017 -2.850081 0.000354 -0.000240 98.450804 13.722398 -15.884652 -2.772156 -0.000015 -0.000022 0.000000 0.000001 -0.000000 -9.532591 0.000255 0.000212 87.810367 17.542755 -17.033723 -3.700078 0.000329 0.003952 89.724732 11.176775 -11.030314 -2.950058 0.000335 -0.001804 95.191103 12.382122 -13.539744 -2.946631 0.000003 -0.000154 -0.000002 -0.000001 -0.000000 -9.103714 -0.042756 -1.864890 87.727776 18.315263 -17.570877 -3.379305 0.000344 -0.000828 90.062902 5.884027 -5.906994 -2.889746 0.000360 0.000649 97.914382 5.293039 -6.129494 -2.638819 -0.000001 0.000940 -0.000000 -0.000002 0.000001 -8.076754 -0.486392 -3.806067 81.014376 18.571744 -15.771629 -3.600058 0.000277 -0.003553 83.952150 7.388146 -6.333037 -2.100009 0.000320 -0.005518 87.724047 4.573873 -4.188267 -2.115777 -0.000040 -0.003676 0.000006 -0.000002 -0.000005 4.570446 11.014691 -2.160851 -0.000018 0.000010 -0.000021 10.592466 -0.524589 -2.232337 23.765903 -64.667302 15.173964 27.841845 -0.000017 -0.000143 -10.530308 -106.738911 -14.131097 28.328833 -0.000045 0.000024 0.000021 -0.000090 -0.000000 2.466084 -1.575831 2.681636 -38.783897 210.932620 -196.150520 3.217815 -1.871807 1.916365 150.217826 -29.248144 -349.924853 2.656092 -1.528673 1.514495 321.273794 207.043975 233.941137 2.020890 -1.154072 1.115149 0.000001 0.000003 0.000006 9.109356 -0.517868 2.259728 73.299097 -13.555464 -349.902723 3.699986 -0.000024 -0.000240 -189.994662 -139.373425 -183.703716 2.849940 0.000129 0.000581 107.577255 -149.204226 157.198566 2.774903 -0.000042 -0.000027 0.000001 0.000003 -0.000000 9.533433 0.000191 -0.000120 70.197112 -9.287999 -353.471251 3.699996 -0.000019 -0.000135 -21.887693 -22.461553 -364.397641 2.949961 0.000097 0.000180 -75.299639 -19.646090 -15.218099 2.952874 -0.000039 0.000048 0.000002 -0.000000 -0.000000 9.104562 -0.042879 -1.865231 66.298604 -6.624121 -355.669752 3.150014 0.000006 0.000148 -26.429296 -0.547586 -0.128935 2.949977 0.000161 0.000286 -84.575357 -1.191802 -1.085309 2.644316 0.000032 0.000043 0.000003 -0.000003 0.000001 8.077797 -0.486755 -3.806405 58.989455 -5.879789 -356.374573 3.599960 0.000009 0.014834 -31.472497 2.022479 360.443125 2.100026 0.000115 0.007916 274.314659 9.024551 367.942427 2.125500 0.000001 0.007507 0.000001 0.000000 0.000002 -8.207786 -6.751667 -1.599560 -0.077001 -0.000003 0.000080 -0.000002 -44.370110 0.345938 0.153719 -0.000000 -0.000000 0.000000 -44.423679 -3.043532 -0.076700 0.000000 -0.000002 -0.000006 -8.728667 10.710559 -0.000009 -0.000000 -0.000000 -0.000001 -0.000679 9.278123 0.000000 -0.000000 -0.000000 8.207792 -6.751710 -1.599556 -0.074518 -0.000003 0.000081 -0.000002 -44.370014 0.346960 0.148822 0.000002 0.000000 -0.000001 -44.423664 -3.044403 -0.074314 0.000000 -0.000002 -0.000004 -8.728671 10.710558 0.000007 -0.000000 -0.000000 0.000000 -0.000680 9.278137 -0.000000 0.000000 -0.000001 
0.000006 104.270477 1.554256 0.000010 0.000003 -0.000113 -0.000005 10.181587 0.131522 0.000001 -0.000003 0.000084 -0.000000 9.893967 -1.470711 0.000001 0.000000 -0.000000 -0.000000 9.220802 -1.370642 0.000000 -0.000000 -0.000000 0.000001 16.740433 -2.049030 0.000000 -0.000000 -0.000000 0.000000 9.617859 1.685014 0.000000 0.000000 0.000000 0.000002 22.037384 7.501101 0.000000 -0.000000 0.000000 -4.569968 11.014880 -2.160881 0.000008 0.000001 -0.000038 -10.592867 -0.524775 -2.231874 71.177900 36.071967 -26.234220 -27.841536 -0.000004 0.000560 -53.636157 105.972065 67.685556 -28.328829 0.000023 0.000029 -0.000320 -0.000043 0.000007 -2.464421 -1.573897 2.682380 -33.927366 -153.286917 18.884671 -3.215245 -1.872525 1.924617 150.262318 34.044866 26.278091 -2.654965 -1.527854 1.513068 148.135055 27.160660 -32.676810 -2.018838 -1.152015 1.108050 -0.000005 -0.000004 0.000000 -9.108386 -0.517563 2.260143 103.169850 17.985941 -22.631255 -3.700062 0.000296 0.001530 100.117630 15.382102 -18.294638 -2.850106 0.000359 -0.000232 99.937429 13.391347 -15.910292 -2.772186 -0.000015 -0.000024 -0.000000 -0.000003 0.000000 -9.532587 0.000283 0.000236 88.946166 17.115382 -16.949244 -3.700050 0.000338 0.003953 89.982613 10.387668 -10.291767 -2.950063 0.000344 -0.001793 95.777557 11.904226 -13.151042 -2.946635 -0.000013 -0.000157 0.000001 0.000002 0.000001 -9.103697 -0.042757 -1.864876 89.219790 18.052315 -17.767637 -3.379286 0.000333 -0.000832 90.476511 4.992075 -5.050135 -2.889741 0.000367 0.000627 98.283492 4.463947 -5.210858 -2.638812 -0.000026 0.000937 -0.000005 0.000000 0.000001 -8.076746 -0.486390 -3.806056 81.668517 17.833716 -15.311580 -3.600024 0.000267 -0.003553 84.250117 6.037719 -5.150126 -2.100001 0.000329 -0.005513 87.630583 3.648652 -3.296481 -2.115777 -0.000041 -0.003676 0.000000 -0.000002 -0.000005 4.570446 11.014691 -2.160851 -0.000018 0.000010 -0.000021 10.592466 -0.524573 -2.232341 25.611592 -63.872589 16.128314 27.841850 0.000005 -0.000153 -13.276597 -106.631021 -17.758476 28.328844 -0.000043 0.000021 0.000020 -0.000089 0.000001 2.466175 -1.575909 2.681619 -40.705049 208.289474 -161.549478 3.217853 -1.871783 1.916387 153.803047 -27.264344 -336.999649 2.656093 -1.528661 1.514499 331.924490 202.391865 239.798953 2.020887 -1.154069 1.115137 0.000001 0.000003 0.000004 9.109371 -0.517889 2.259744 74.019054 -17.306023 -346.921209 3.700002 -0.000003 -0.000217 -197.152413 -146.625939 -185.174597 2.849950 0.000106 0.000580 108.836517 -157.267879 163.632249 2.774895 -0.000030 -0.000021 0.000001 0.000002 -0.000000 9.533442 0.000179 -0.000082 74.025652 -13.290446 -349.967446 3.699994 -0.000010 -0.000138 -22.820676 -12.673805 -362.567751 2.950000 0.000092 0.000192 -79.480343 -7.078543 -5.889206 2.952869 -0.000012 0.000064 0.000001 -0.000001 -0.000001 9.104561 -0.042899 -1.865212 67.039987 -11.457887 -352.394977 3.150012 0.000022 0.000137 -31.827958 10.179318 2.908792 2.950009 0.000110 0.000238 -88.682131 13.056575 12.760395 2.644329 0.000033 0.000067 -0.000000 0.000000 0.000002 8.077811 -0.486770 -3.806407 58.282687 -11.300590 -353.365274 3.599960 0.000013 0.014832 -34.540748 6.287630 361.800612 2.100036 0.000144 0.007911 271.423030 12.970236 372.181816 2.125496 -0.000001 0.007536 -0.000001 0.000001 0.000000 -8.207786 -6.751667 -1.599560 -0.077001 -0.000003 0.000080 -0.000002 -44.370110 0.345938 0.153719 -0.000000 -0.000000 0.000000 -44.423679 -3.043532 -0.076700 0.000000 -0.000002 -0.000006 -8.728667 10.710559 -0.000009 -0.000000 -0.000000 -0.000001 -0.000679 9.278123 0.000000 -0.000000 -0.000000 8.207792 -6.751710 -1.599556 -0.074518 -0.000003 0.000081 -0.000002 -44.370014 0.346960 0.148822 0.000002 0.000000 -0.000001 -44.423664 -3.044403 -0.074314 0.000000 -0.000002 -0.000004 -8.728671 10.710558 0.000007 -0.000000 -0.000000 0.000000 -0.000680 9.278137 -0.000000 0.000000 -0.000001 
0.000006 104.270477 1.554256 0.000010 0.000003 -0.000113 -0.000005 10.181587 0.131522 0.000001 -0.000003 0.000084 -0.000000 9.893967 -1.470711 0.000001 0.000000 -0.000000 -0.000000 9.220802 -1.370642 0.000000 -0.000000 -0.000000 0.000001 16.740433 -2.049030 0.000000 -0.000000 -0.000000 0.000000 9.617859 1.685014 0.000000 0.000000 0.000000 0.000002 22.037384 7.501101 0.000000 -0.000000 0.000000 -4.569968 11.014880 -2.160881 0.000008 0.000001 -0.000038 -10.592869 -0.524777 -2.231892 71.022090 33.636858 -24.343802 -27.841526 -0.000003 0.000556 -52.827497 106.908573 67.654984 -28.328798 0.000005 0.000031 -0.000322 -0.000043 0.000004 -2.464411 -1.573902 2.682371 -34.340480 -153.817814 18.310385 -3.215241 -1.872512 1.924616 150.149182 34.413795 29.184749 -2.654968 -1.527897 1.513081 148.891403 26.863991 -34.257948 -2.018853 -1.152015 1.108052 -0.000005 -0.000002 0.000004 -9.108404 -0.517572 2.260135 102.457899 17.901408 -22.248013 -3.700063 0.000305 0.001530 98.976503 15.500624 -18.072652 -2.850084 0.000358 -0.000244 99.063151 13.355281 -15.627022 -2.772171 -0.000016 -0.000023 -0.000000 0.000001 -0.000000 -9.532601 0.000257 0.000226 88.087898 16.528733 -16.131797 -3.700065 0.000322 0.003954 89.738195 9.646099 -9.510790 -2.950065 0.000346 -0.001817 95.212243 11.272940 -12.332415 -2.946622 0.000002 -0.000155 -0.000002 -0.000002 -0.000001 -9.103712 -0.042752 -1.864883 89.326682 17.465593 -17.220341 -3.379293 0.000341 -0.000836 90.816074 3.876685 -3.948491 -2.889719 0.000387 0.000618 97.038232 3.476337 -3.980568 -2.638802 -0.000002 0.000935 -0.000002 0.000000 0.000000 -8.076756 -0.486382 -3.806036 82.839594 16.975880 -14.867344 -3.600017 0.000288 -0.003556 84.792974 4.744961 -4.024512 -2.100003 0.000326 -0.005517 86.763449 2.561576 -2.222894 -2.115782 -0.000051 -0.003681 -0.000000 -0.000000 -0.000004 4.570446 11.014691 -2.160851 -0.000018 0.000010 -0.000021 10.592466 -0.524581 -2.232342 26.563386 -63.129594 16.503182 27.841839 -0.000007 -0.000148 -9.336870 -106.621015 -12.508909 28.328833 -0.000029 0.000021 0.000019 -0.000089 -0.000000 2.466028 -1.575842 2.681637 -45.393533 209.919963 -212.577835 3.217733 -1.871712 1.916364 149.897763 -33.656071 -384.184863 2.656093 -1.528617 1.514470 335.054438 202.974139 229.748385 2.020887 -1.154066 1.115125 0.000001 0.000001 0.000004 9.109368 -0.517853 2.259727 88.142396 -16.003809 -344.512501 3.699999 -0.000030 -0.000276 -183.269152 -151.331843 -180.832359 2.849993 0.000088 0.000585 118.598394 -161.957432 169.229575 2.774910 -0.000029 -0.000033 0.000001 0.000000 -0.000003 9.533444 0.000226 -0.000098 85.398757 -11.471692 -349.417014 3.700002 -0.000027 -0.000193 -11.114826 -6.370397 -360.620410 2.950002 0.000104 0.000146 -73.547791 -3.213089 -2.403424 2.952851 -0.000007 0.000064 -0.000002 -0.000001 -0.000000 9.104565 -0.042866 -1.865222 79.602433 -8.691324 -352.752606 3.150018 0.000012 0.000108 -21.610280 12.987710 2.488550 2.950006 0.000099 0.000231 -82.472451 11.646130 10.215025 2.644319 0.000029 0.000051 -0.000002 0.000002 -0.000000 8.077814 -0.486722 -3.806411 68.221931 -9.698546 -353.048407 3.599960 0.000007 0.014814 -26.391644 5.579251 361.188900 2.100027 0.000113 0.007930 276.859314 9.679505 368.174681 2.125494 -0.000029 0.007499 -0.000004 0.000001 0.000001 -8.207786 -6.751667 -1.599560 -0.077001 -0.000003 0.000080 -0.000002 -44.370110 0.345938 0.153719 -0.000000 -0.000000 0.000000 -44.423679 -3.043532 -0.076700 0.000000 -0.000002 -0.000006 -8.728667 10.710559 -0.000009 -0.000000 -0.000000 -0.000001 -0.000679 9.278123 0.000000 -0.000000 -0.000000 8.207792 -6.751710 -1.599556 -0.074518 -0.000003 0.000081 -0.000002 -44.370014 0.346960 0.148822 0.000002 0.000000 -0.000001 -44.423664 -3.044403 -0.074314 0.000000 -0.000002 -0.000004 -8.728671 10.710558 0.000007 -0.000000 -0.000000 0.000000 -0.000680 9.278137 -0.000000 0.000000 -0.000001 
